<svg width="31" height="33" viewBox="0 0 31 33" fill="none" xmlns="http://www.w3.org/2000/svg">
<path d="M7.15002 13.75C7.48002 13.75 7.70002 13.53 7.70002 13.2V12.1C7.70002 11.77 7.48002 11.55 7.15002 11.55H3.85002C3.52002 11.55 3.30002 11.77 3.30002 12.1V13.2C3.30002 13.53 3.52002 13.75 3.85002 13.75H4.40002V22H3.85002C3.52002 22 3.30002 22.22 3.30002 22.55V23.65C3.30002 23.98 3.52002 24.2 3.85002 24.2H7.15002C7.48002 24.2 7.70002 23.98 7.70002 23.65V22.55C7.70002 22.22 7.48002 22 7.15002 22H6.60002V13.75H7.15002Z" fill="white"/>
<path d="M26.95 13.75C27.28 13.75 27.5 13.53 27.5 13.2V12.1C27.5 11.77 27.28 11.55 26.95 11.55H23.65C23.32 11.55 23.1 11.77 23.1 12.1V13.2C23.1 13.53 23.32 13.75 23.65 13.75H24.2V22H23.65C23.32 22 23.1 22.22 23.1 22.55V23.65C23.1 23.98 23.32 24.2 23.65 24.2H26.95C27.28 24.2 27.5 23.98 27.5 23.65V22.55C27.5 22.22 27.28 22 26.95 22H26.4V13.75H26.95Z" fill="white"/>
<path d="M15.4 0L0 8.25V10.45H30.8V8.25L15.4 0ZM15.4 7.15C14.19 7.15 13.2 6.16 13.2 4.95C13.2 3.74 14.19 2.75 15.4 2.75C16.61 2.75 17.6 3.74 17.6 4.95C17.6 6.16 16.61 7.15 15.4 7.15Z" fill="white"/>
<path d="M15.4 18.7001C11.44 18.7001 8.25 21.8901 8.25 25.8501C8.25 29.8101 11.44 33.0001 15.4 33.0001C19.36 33.0001 22.55 29.8101 22.55 25.8501C22.55 21.8901 19.36 18.7001 15.4 18.7001ZM15.4 31.9001C12.045 31.9001 9.35 29.2051 9.35 25.8501C9.35 22.4951 12.045 19.8001 15.4 19.8001C18.755 19.8001 21.45 22.4951 21.45 25.8501C21.45 29.2051 18.755 31.9001 15.4 31.9001Z" fill="white"/>
<path d="M7.645 28.6H0V30.8H8.79999C8.30499 30.14 7.91999 29.37 7.645 28.6Z" fill="white"/>
<path d="M23.155 28.6C22.88 29.37 22.495 30.14 22 30.8H30.8V28.6H23.155Z" fill="white"/>
<path d="M7.14999 25.8499C7.14999 25.6849 7.14999 25.4649 7.20499 25.2999H1.64999V27.4999H7.31499C7.20499 26.9499 7.14999 26.3999 7.14999 25.8499Z" fill="white"/>
<path d="M23.595 25.2999C23.595 25.4649 23.65 25.6849 23.65 25.8499C23.65 26.3999 23.595 26.9499 23.485 27.4999H29.15V25.2999H23.595Z" fill="white"/>
<path d="M20.35 11.55H17.05C16.72 11.55 16.5 11.77 16.5 12.1V13.2C16.5 13.53 16.72 13.75 17.05 13.75H17.6V17.93C18.37 18.15 19.14 18.48 19.8 18.865V13.75H20.35C20.68 13.75 20.9 13.53 20.9 13.2V12.1C20.9 11.77 20.68 11.55 20.35 11.55Z" fill="white"/>
<path d="M13.75 11.55H10.45C10.12 11.55 9.90002 11.77 9.90002 12.1V13.2C9.90002 13.53 10.12 13.75 10.45 13.75H11V18.865C11.66 18.48 12.43 18.15 13.2 17.93V13.75H13.75C14.08 13.75 14.3 13.53 14.3 13.2V12.1C14.3 11.77 14.08 11.55 13.75 11.55Z" fill="white"/>
<path d="M15.29 21.4501C14.41 21.5051 13.75 22.2751 13.75 23.2101V23.7051C13.75 24.0351 13.805 24.4201 13.915 24.7501L14.19 25.6301C14.245 25.7951 14.355 25.9601 14.465 26.0701L14.685 26.2901C14.795 26.4001 14.905 26.4551 15.07 26.4551H15.73C15.895 26.4551 16.005 26.4001 16.115 26.2901L16.335 26.0701C16.445 25.9601 16.555 25.7951 16.61 25.6301L16.885 24.7501C16.995 24.4201 17.05 24.0351 17.05 23.7051V23.1551C17.05 22.1651 16.28 21.3951 15.29 21.4501Z" fill="white"/>
<path d="M16.445 25.63L18.15 25.3C17.16 22.605 17.6 20.9 15.4 20.9C13.255 20.9 13.64 22.605 12.65 25.3L14.355 25.63C14.355 26.015 14.3 26.345 14.19 26.73L15.4 28.27L16.61 26.73C16.445 26.345 16.39 26.015 16.445 25.63Z" fill="white"/>
<path d="M19.47 28.05C19.305 27.72 19.03 27.445 18.645 27.39L17.655 27.17L15.4 30.03L13.145 27.17L12.155 27.39C11.77 27.445 11.495 27.72 11.33 28.05L11.165 28.435C12.045 29.865 13.585 30.8 15.4 30.8C17.215 30.8 18.755 29.865 19.635 28.435L19.47 28.05Z" fill="white"/>
</svg>
