<svg width="33" height="33" viewBox="0 0 33 33" fill="none" xmlns="http://www.w3.org/2000/svg">
<path d="M32.9256 14.9741C32.5948 11.5609 31.231 8.33742 29.0013 5.73481C26.7865 3.14707 23.7541 1.28062 20.4467 0.473815C17.2508 -0.306969 13.817 -0.124786 10.7363 1.03524C7.45869 2.26962 4.63812 4.51902 2.70571 7.4451C0.87736 10.2113 -0.0702625 13.5501 0.00406081 16.8628C0.0783841 20.1979 1.17094 23.5069 3.14422 26.1988C3.65705 26.8978 4.21819 27.5633 4.83136 28.1768C7.232 30.5712 10.361 32.2145 13.7093 32.7722C17.0315 33.3225 20.4355 32.8726 23.4939 31.4561C26.6118 30.0135 29.2577 27.5298 30.9225 24.5294C32.5279 21.6405 33.2452 18.2645 32.9256 14.9741ZM23.8841 12.9106C23.5237 13.2712 23.1595 13.6356 22.799 13.9962L15.1251 21.674C14.6866 22.1127 13.988 22.0867 13.5495 21.674C13.3674 21.5029 13.1853 21.3319 13.0032 21.1609C11.71 19.9488 10.413 18.733 9.11981 17.5209C8.66644 17.0934 8.72218 16.3758 9.11981 15.9445C9.53602 15.4909 10.2718 15.5467 10.6955 15.9445C10.8776 16.1155 11.0597 16.2865 11.2417 16.4576C12.2674 17.4168 13.2893 18.3686 14.315 19.3316C14.4228 19.2275 14.5268 19.1197 14.6346 19.0119C16.2065 17.4391 17.7785 15.8664 19.3504 14.2937C20.3352 13.3084 21.3237 12.3231 22.3085 11.3341C22.7507 10.8954 23.4419 10.9252 23.8841 11.3341C24.3264 11.7431 24.2966 12.4979 23.8841 12.9106Z" fill="white"/>
</svg>
