<svg width="30" height="30" viewBox="0 0 30 30" fill="none" xmlns="http://www.w3.org/2000/svg">
<path d="M14.375 5.625H0.625C0.279846 5.625 0 5.90485 0 6.25V29.375C0 29.7202 0.279846 30 0.625 30H14.375C14.7202 30 15 29.7202 15 29.375V6.25C15 5.90485 14.7202 5.625 14.375 5.625ZM4.375 26.89H3.125C2.77985 26.89 2.5 26.6101 2.5 26.265C2.5 25.9198 2.77985 25.64 3.125 25.64H4.375C4.72015 25.64 5 25.9198 5 26.265C5 26.6101 4.72015 26.89 4.375 26.89ZM4.375 23.765H3.125C2.77985 23.765 2.5 23.4851 2.5 23.14C2.5 22.7948 2.77985 22.515 3.125 22.515H4.375C4.72015 22.515 5 22.7948 5 23.14C5 23.4851 4.72015 23.765 4.375 23.765ZM4.375 20.64H3.125C2.77985 20.64 2.5 20.3601 2.5 20.015C2.5 19.6698 2.77985 19.39 3.125 19.39H4.375C4.72015 19.39 5 19.6698 5 20.015C5 20.3601 4.72015 20.64 4.375 20.64ZM8.125 26.89H6.875C6.52985 26.89 6.25 26.6101 6.25 26.265C6.25 25.9198 6.52985 25.64 6.875 25.64H8.125C8.47015 25.64 8.75 25.9198 8.75 26.265C8.75 26.6101 8.47015 26.89 8.125 26.89ZM8.125 23.765H6.875C6.52985 23.765 6.25 23.4851 6.25 23.14C6.25 22.7948 6.52985 22.515 6.875 22.515H8.125C8.47015 22.515 8.75 22.7948 8.75 23.14C8.75 23.4851 8.47015 23.765 8.125 23.765ZM8.125 20.64H6.875C6.52985 20.64 6.25 20.3601 6.25 20.015C6.25 19.6698 6.52985 19.39 6.875 19.39H8.125C8.47015 19.39 8.75 19.6698 8.75 20.015C8.75 20.3601 8.47015 20.64 8.125 20.64ZM11.875 26.89H10.625C10.2798 26.89 10 26.6101 10 26.265C10 25.9198 10.2798 25.64 10.625 25.64H11.875C12.2202 25.64 12.5 25.9198 12.5 26.265C12.5 26.6101 12.2202 26.89 11.875 26.89ZM11.875 23.765H10.625C10.2798 23.765 10 23.4851 10 23.14C10 22.7948 10.2798 22.515 10.625 22.515H11.875C12.2202 22.515 12.5 22.7948 12.5 23.14C12.5 23.4851 12.2202 23.765 11.875 23.765ZM11.875 20.64H10.625C10.2798 20.64 10 20.3601 10 20.015C10 19.6698 10.2798 19.39 10.625 19.39H11.875C12.2202 19.39 12.5 19.6698 12.5 20.015C12.5 20.3601 12.2202 20.64 11.875 20.64ZM12.5 16.875C12.5 17.2202 12.2202 17.5 11.875 17.5H3.125C2.77985 17.5 2.5 17.2202 2.5 16.875V9.375C2.5 9.02985 2.77985 8.75 3.125 8.75H11.875C12.2202 8.75 12.5 9.02985 12.5 9.375V16.875Z" fill="white"/>
<path d="M13.125 1.25C13.125 0.560608 12.5644 0 11.875 0H3.125C2.43561 0 1.875 0.560608 1.875 1.25V4.375H13.125V1.25ZM10 3.125H5C4.65485 3.125 4.375 2.84515 4.375 2.5C4.375 2.15485 4.65485 1.875 5 1.875H10C10.3452 1.875 10.625 2.15485 10.625 2.5C10.625 2.84515 10.3452 3.125 10 3.125Z" fill="white"/>
<path d="M28.125 16.2521H16.25V19.3751H30V18.1271C30 17.0896 29.1563 16.2521 28.125 16.2521Z" fill="white"/>
<path d="M16.25 28.7519H28.125C29.1563 28.7519 30 27.9082 30 26.8769V21.8898H16.25V28.7519Z" fill="white"/>
</svg>
