<svg width="41" height="41" viewBox="0 0 41 41" fill="none" xmlns="http://www.w3.org/2000/svg">
<circle cx="20.5" cy="20.5" r="20.5" fill="url(#paint0_linear_25_843)"/>
<path d="M18.6642 23.2458C18.6642 22.7767 18.8192 22.3442 19.0808 21.9958H13.8742C13.628 21.9958 13.3842 22.0443 13.1568 22.1386C12.9293 22.2328 12.7227 22.3709 12.5486 22.5451C12.3746 22.7192 12.2366 22.9259 12.1424 23.1534C12.0483 23.3808 11.9999 23.6246 12 23.8708V24.6367C12 25.1133 12.1492 25.5783 12.425 25.9667C13.7117 27.77 15.8142 28.6625 18.6642 28.6625H18.7058C18.6781 28.5254 18.6641 28.3858 18.6642 28.2458V23.2458Z" fill="white"/>
<path d="M18.6642 12C19.2114 12 19.7532 12.1078 20.2587 12.3172C20.7643 12.5266 21.2236 12.8335 21.6105 13.2204C21.9974 13.6073 22.3043 14.0666 22.5137 14.5722C22.7231 15.0777 22.8309 15.6195 22.8309 16.1667C22.8309 16.7138 22.7231 17.2557 22.5137 17.7612C22.3043 18.2667 21.9974 18.726 21.6105 19.1129C21.2236 19.4999 20.7643 19.8068 20.2587 20.0162C19.7532 20.2256 19.2114 20.3333 18.6642 20.3333C17.5592 20.3333 16.4993 19.8943 15.7179 19.1129C14.9365 18.3315 14.4976 17.2717 14.4976 16.1667C14.4976 15.0616 14.9365 14.0018 15.7179 13.2204C16.4993 12.439 17.5592 12 18.6642 12Z" fill="white"/>
<path d="M24.0893 26.1017L19.5134 23.4325C19.5689 23.0341 19.7666 22.6693 20.07 22.4053C20.3734 22.1412 20.7621 21.9958 21.1643 21.9958H26.9976C27.4353 21.9958 27.8555 22.1679 28.1674 22.4751C28.4792 22.7823 28.6577 23.1998 28.6643 23.6375L24.0893 26.1017Z" fill="white"/>
<path d="M24.2784 26.9458L28.6642 24.5858V27.8292C28.6642 28.2712 28.4886 28.6951 28.1761 29.0077C27.8635 29.3202 27.4396 29.4958 26.9976 29.4958H21.1642C20.7222 29.4958 20.2983 29.3202 19.9857 29.0077C19.6732 28.6951 19.4976 28.2712 19.4976 27.8292V24.3875L23.8709 26.9392C23.9325 26.9752 24.0023 26.9948 24.0737 26.9961C24.145 26.9975 24.2155 26.9804 24.2784 26.9467V26.9458Z" fill="white"/>
<defs>
<linearGradient id="paint0_linear_25_843" x1="20.5" y1="0" x2="20.5" y2="41" gradientUnits="userSpaceOnUse">
<stop offset="0.484375" stop-color="#1B2E54"/>
<stop offset="1" stop-color="#1B2E54" stop-opacity="0.57"/>
</linearGradient>
</defs>
</svg>
