<svg width="44" height="29" viewBox="0 0 44 29" fill="none" xmlns="http://www.w3.org/2000/svg">
<path d="M25.6746 5.24401H23.5266V2.43381H25.6746V5.24401ZM13.7859 24.4713V27.1421H15.9392V24.4713C15.9392 23.6445 16.6189 22.972 17.4551 22.972H19.4786V20.8434H17.4551C15.4316 20.8434 13.7859 22.4711 13.7859 24.4713ZM24.5019 14.1582H21.4214V16.8088H24.5019V14.1582ZM6.12256 23.9742V22.285H2.95505V23.9742H6.12256ZM44 28.0386V29H0V28.0386H9.98678H10.473V10.5279C10.473 8.71759 11.9622 7.24471 13.7936 7.24471H17.6146C19.4461 7.24471 20.9352 8.71759 20.9352 10.5279V20.3627H19.9643V20.0344H19.4781V20.3627H17.4546C15.1632 20.3627 13.2992 22.2057 13.2992 24.4713V27.1421H12.7726V27.6228H16.9203V27.1421H16.4244V24.4713C16.4244 23.9093 16.8863 23.4527 17.4541 23.4527H19.4777V23.8031H19.9638V23.4527H20.9348V28.0386H24.9876V13.9082C24.9876 12.097 26.4778 10.6236 28.3097 10.6236H32.1317C33.9636 10.6236 35.4538 12.097 35.4538 13.9082V28.0391H35.94H44V28.0386ZM19.9643 11.4865H19.4781V17.826H19.9643V11.4865ZM17.6146 8.68539C18.0808 8.68539 18.5267 8.857 18.8714 9.16849C19.2569 9.517 19.4781 10.0126 19.4781 10.5279H19.9643C19.9643 9.87754 19.6857 9.2531 19.1996 8.81373C18.7649 8.421 18.2024 8.20468 17.6146 8.20468V8.68539ZM34.4824 23.5224H33.9962V25.2616H34.4824V23.5224ZM34.4824 13.9082C34.4824 13.1362 34.0949 12.4161 33.4458 11.9825L33.1731 12.3806C33.6884 12.7248 33.9957 13.2963 33.9957 13.9082V22.3773H34.4819V13.9082H34.4824ZM6.97923 27.056H6.12256V24.877H6.51589V24.3963H2.54325V24.877H2.95554V27.056H2.12756V27.5367H6.97923V27.056ZM36.4422 23.2777H36.9717C37.5395 23.2777 38.0014 23.7344 38.0014 24.2963V27.0589H37.1827V27.5396H41.9663V27.0589H41.1266V24.2963C41.1266 22.0307 39.2626 20.1877 36.9712 20.1877H36.4417V19.632H35.9555V23.8007H36.4417V23.2777H36.4422ZM26.1608 4.95607H28.953C29.0896 4.95607 29.2058 5.07048 29.2058 5.20604V9.65208H28.1279V10.1328H29.2058V10.1333H31.2721V10.1328H32.3509V9.65208H31.2721V5.20604C31.2721 3.94178 30.2316 2.91307 28.953 2.91307H26.1608V4.95607ZM14.5813 6.76833H16.6524V6.76785H17.7274V6.28715H16.6524V5.20604C16.6524 5.06808 16.7638 4.95607 16.9004 4.95607H23.0404V2.91307H16.9004C15.6217 2.91307 14.5813 3.94178 14.5813 5.20604V6.28715H13.5044V6.76785L14.5813 6.76833ZM24.8437 0.869596H24.3575V1.88004V2.11655H24.8437V1.88004V0.869596ZM27.1128 0H22.1293V0.480705H27.1128V0ZM6.5154 21.3395H6.12208V18.7182C6.12208 17.6323 7.0152 16.7487 8.1135 16.7487H9.48698V17.2294V17.4011H9.97317V12.9935H9.48698V13.6174H8.11399C5.2693 13.6174 2.95554 15.9056 2.95554 18.7182V21.3395H2.54325V21.8202H6.51589V21.3395H6.5154ZM24.4946 23.7339V20.1199H24.0084V20.8434H19.9648V22.972H24.0084V23.7339H24.4946Z" fill="white"/>
</svg>
