<svg width="46" height="31" viewBox="0 0 46 31" fill="none" xmlns="http://www.w3.org/2000/svg">
<path d="M5.40657 22.7366H9.75114H11.1028H22.2539H23.6055H34.7566H36.1082H40.4528C40.839 22.7366 41.1286 22.447 41.1286 22.0608C41.1286 21.6746 40.839 21.385 40.4528 21.385H36.1082V19.261C37.0254 19.2127 38.4736 18.9713 39.4873 18.0059C40.6942 16.799 40.7907 14.8681 40.7424 14.144C40.7424 13.9992 40.5976 13.8544 40.4528 13.8544C39.7287 13.8544 37.7978 13.9509 36.591 15.1095C36.3979 15.3026 36.253 15.4957 36.1565 15.6887V12.9855C37.0737 12.9372 38.5219 12.6958 39.5356 11.7304C40.7424 10.5235 40.839 8.5926 40.7907 7.86851C40.7907 7.72369 40.6459 7.57887 40.5011 7.57887C39.777 7.57887 37.8461 7.67542 36.6392 8.83397C36.4461 9.02706 36.3013 9.22015 36.2048 9.41325V6.95132C36.2048 6.56514 35.9151 6.2755 35.529 6.2755C35.1428 6.2755 34.8531 6.56514 34.8531 6.95132V9.41325C34.7083 9.22015 34.5635 9.02706 34.3704 8.83397C33.1636 7.62714 31.2327 7.5306 30.5086 7.57887C30.3637 7.57887 30.2189 7.72369 30.2189 7.86851C30.2189 8.5926 30.3155 10.5235 31.474 11.7304C32.4395 12.6958 33.9359 12.9372 34.8531 12.9855V15.6887C34.7083 15.4957 34.5635 15.3026 34.3704 15.1095C33.1636 13.9026 31.2327 13.8061 30.5086 13.8544C30.3637 13.8544 30.2189 13.9992 30.2189 14.144C30.2189 14.8681 30.3155 16.799 31.474 18.0059C32.4395 18.9713 33.9359 19.2127 34.8531 19.261V21.385H23.6055V19.261C24.5227 19.2127 25.9709 18.9713 26.9846 18.0059C28.1915 16.799 28.288 14.8681 28.2397 14.144C28.2397 13.9992 28.0949 13.8544 27.9501 13.8544C27.226 13.8544 25.2951 13.9509 24.0882 15.1095C23.8951 15.3026 23.7503 15.4957 23.6538 15.6887V12.9855C24.571 12.9372 26.0192 12.6958 27.0329 11.7304C28.2397 10.5235 28.3363 8.5926 28.288 7.86851C28.288 7.72369 28.1432 7.57887 27.9984 7.57887C27.2743 7.57887 25.3433 7.67542 24.1365 8.83397C23.9434 9.02706 23.7986 9.22015 23.7021 9.41325V6.70995C24.6192 6.66168 26.0674 6.42032 27.0812 5.45486C28.288 4.24803 28.3845 2.31711 28.3363 1.59301C28.3363 1.44819 28.1914 1.30337 28.0466 1.30337C27.3225 1.30337 25.3916 1.39992 24.1848 2.55847C23.9917 2.75156 23.8469 2.94466 23.7503 3.13775V0.675823C23.7503 0.289638 23.4607 0 23.0745 0C22.6883 0 22.3987 0.289638 22.3987 0.675823V3.13775C22.2539 2.94466 22.109 2.75156 21.916 2.55847C20.7091 1.35165 18.7782 1.2551 18.0541 1.30337C17.9093 1.30337 17.7645 1.44819 17.7645 1.59301C17.7645 2.31711 17.861 4.24803 19.0196 5.45486C19.985 6.42032 21.4815 6.66168 22.3987 6.70995V9.41325C22.2539 9.22015 22.109 9.02706 21.916 8.83397C20.7091 7.62714 18.7782 7.5306 18.0541 7.57887C17.9093 7.57887 17.7645 7.72369 17.7645 7.86851C17.7645 8.5926 17.861 10.5235 19.0196 11.7304C19.985 12.6958 21.4815 12.9372 22.3987 12.9855V15.6887C22.2539 15.4957 22.109 15.3026 21.916 15.1095C20.7091 13.9026 18.7782 13.8061 18.0541 13.8544C17.9093 13.8544 17.7645 13.9992 17.7645 14.144C17.7645 14.8681 17.861 16.799 19.0196 18.0059C19.985 18.9713 21.4815 19.2127 22.3987 19.261V21.385H11.1028V19.261C12.02 19.2127 13.4682 18.9713 14.4819 18.0059C15.6887 16.799 15.7853 14.8681 15.737 14.144C15.737 13.9992 15.5922 13.8544 15.4474 13.8544C14.7233 13.8544 12.7923 13.9509 11.5855 15.1095C11.3924 15.3026 11.2476 15.4957 11.1511 15.6887V12.9855C12.0682 12.9372 13.5164 12.6958 14.5302 11.7304C15.737 10.5235 15.8335 8.5926 15.7853 7.86851C15.7853 7.72369 15.6405 7.57887 15.4956 7.57887C14.7715 7.57887 12.8406 7.67542 11.6338 8.83397C11.4407 9.02706 11.2959 9.22015 11.1993 9.41325V6.95132C11.1993 6.56514 10.9097 6.2755 10.5235 6.2755C10.1373 6.2755 9.84769 6.56514 9.84769 6.95132V9.41325C9.70287 9.22015 9.55805 9.02706 9.36496 8.83397C8.15813 7.62714 6.22721 7.5306 5.50311 7.57887C5.35829 7.57887 5.21347 7.72369 5.21347 7.86851C5.21347 8.5926 5.31002 10.5235 6.46857 11.7304C7.43403 12.6958 8.9305 12.9372 9.84769 12.9855V15.6887C9.70287 15.4957 9.55805 15.3026 9.36496 15.1095C8.15813 13.9026 6.22721 13.8061 5.50311 13.8544C5.35829 13.8544 5.21347 13.9992 5.21347 14.144C5.21347 14.8681 5.31002 16.799 6.46857 18.0059C7.43403 18.9713 8.9305 19.2127 9.84769 19.261V21.385H5.50311C5.11693 21.385 4.82729 21.6746 4.82729 22.0608C4.73074 22.3987 5.06866 22.7366 5.40657 22.7366Z" fill="white"/>
<path d="M3.04118 26.4536H42.8182C43.2044 26.4536 43.494 26.1639 43.494 25.7778C43.494 25.3916 43.2044 25.1019 42.8182 25.1019H3.04118C2.65499 25.1019 2.36536 25.3916 2.36536 25.7778C2.36536 26.1639 2.65499 26.4536 3.04118 26.4536Z" fill="white"/>
<path d="M45.1836 28.8672H0.675823C0.289638 28.8672 0 29.1568 0 29.543C0 29.9292 0.289638 30.2188 0.675823 30.2188H45.1836C45.5698 30.2188 45.8594 29.9292 45.8594 29.543C45.8594 29.1568 45.5698 28.8672 45.1836 28.8672Z" fill="white"/>
</svg>
