<svg width="40" height="27" viewBox="0 0 40 27" fill="none" xmlns="http://www.w3.org/2000/svg">
<path d="M40 12.53L35.8244 1.88754C35.7454 1.68001 35.6048 1.50147 35.4213 1.3758C35.2378 1.25013 35.0203 1.18331 34.7977 1.18427C31.9115 1.19949 21.6774 1.26358 21.6774 1.26358L21.1093 11.4069L21.1113 18.0666H20.0026C20.0072 12.0216 19.9977 0.00339059 19.9929 0L2.21766 0.00932966C1.62934 0.00964108 1.06523 0.242976 0.649362 0.65803C0.233497 1.07308 -7.66501e-05 1.63587 1.88686e-08 2.22266L0.00222173 21.4325C0.00222173 21.4359 1.39429 21.4392 3.42347 21.442C3.39244 21.6339 3.37288 21.8275 3.36488 22.0217C3.36488 23.34 3.88995 24.6044 4.82459 25.5366C5.75923 26.4688 7.02687 26.9925 8.34865 26.9925C9.67042 26.9925 10.9381 26.4688 11.8727 25.5366C12.8073 24.6044 13.3324 23.34 13.3324 22.0217C13.3244 21.8307 13.3051 21.6402 13.2748 21.4514C16.9659 21.454 19.9923 21.4556 19.9923 21.4556C19.9953 21.4525 19.9976 20.994 19.9994 20.2643H21.397C21.5794 20.6175 21.855 20.9143 22.1941 21.1229C22.5331 21.3315 22.9228 21.4439 23.3211 21.4481L30.0826 21.4592C30.0528 21.6454 30.0338 21.8332 30.0258 22.0217C30.0242 23.2173 30.4545 24.3734 31.2381 25.2782C32.0217 26.183 33.1059 26.7758 34.2921 26.9481C35.4783 27.1204 36.687 26.8605 37.6967 26.2162C38.7064 25.5718 39.4495 24.5861 39.7897 23.4397C40.0238 22.6563 40.0581 21.8271 39.8896 21.0272C39.7211 20.2272 39.3552 19.4819 38.8249 18.8587L39.9934 18.0597L40 12.53ZM10.8406 22.0217C10.8425 22.3493 10.7795 22.6741 10.6552 22.9774C10.5308 23.2806 10.3476 23.5564 10.116 23.7887C9.88444 24.0211 9.60908 24.2055 9.30578 24.3313C9.00248 24.4571 8.67724 24.5219 8.34875 24.5219C8.02026 24.5219 7.69501 24.4571 7.39171 24.3313C7.08841 24.2055 6.81305 24.0211 6.58147 23.7887C6.34988 23.5564 6.16665 23.2806 6.0423 22.9774C5.91795 22.6741 5.85495 22.3493 5.85691 22.0217C5.87188 21.8254 5.9111 21.6318 5.97367 21.4451C7.47382 21.4467 9.1047 21.4481 10.7249 21.4495C10.7868 21.6348 10.8256 21.827 10.8406 22.0217ZM28.0525 3.95753H34.2041L36.946 11.3241V13.6447H28.0525V3.95753ZM37.5015 22.0217C37.4975 22.6783 37.2333 23.3066 36.7664 23.7695C36.2995 24.2324 35.668 24.4922 35.0096 24.4922C34.3513 24.4922 33.7198 24.2324 33.2529 23.7695C32.786 23.3066 32.5217 22.6783 32.5178 22.0217C32.5329 21.8317 32.5708 21.6442 32.6308 21.4633L35.0097 21.4672L36.7705 20.2632C37.0025 20.4938 37.1866 20.7679 37.312 21.0697C37.4375 21.3715 37.5019 21.695 37.5015 22.0217Z" fill="white"/>
</svg>
