<svg width="41" height="41" viewBox="0 0 41 41" fill="none" xmlns="http://www.w3.org/2000/svg">
<circle cx="20.5" cy="20.5" r="20.5" fill="url(#paint0_linear_25_835)"/>
<path d="M17.318 17.5C17.486 16.627 17.715 15.843 17.988 15.18C18.289 14.447 18.636 13.886 18.996 13.517C19.354 13.149 19.693 13 20 13C20.307 13 20.646 13.149 21.004 13.517C21.364 13.887 21.711 14.447 22.012 15.18C22.285 15.843 22.514 16.627 22.682 17.5H17.318ZM17.063 14.8C17.2765 14.2619 17.5541 13.7515 17.89 13.28C16.7911 13.5817 15.7691 14.1141 14.8921 14.8418C14.0151 15.5694 13.3033 16.4756 12.804 17.5H16.301C16.483 16.493 16.742 15.578 17.063 14.8ZM22.937 14.8C22.7235 14.2622 22.4458 13.7522 22.11 13.281C23.2088 13.5826 24.2307 14.1148 25.1077 14.8423C25.9847 15.5698 26.6966 16.4758 27.196 17.5H23.699C23.517 16.493 23.258 15.578 22.937 14.8ZM23.85 18.5H27.602C27.8762 19.3356 28.0107 20.2107 28 21.09C27.4499 20.63 26.8016 20.3026 26.105 20.1328C25.4083 19.9631 24.682 19.9556 23.982 20.111C23.9597 19.5724 23.9157 19.035 23.85 18.5ZM20.263 24.5C20.2544 24.6188 20.2501 24.7379 20.25 24.857C20.25 25.947 20.664 26.993 21.393 28.001C21.2774 28.1726 21.1473 28.3338 21.004 28.483C20.646 28.851 20.307 29 20 29C19.693 29 19.354 28.851 18.996 28.483C18.636 28.113 18.289 27.553 17.987 26.82C17.6879 26.0707 17.4638 25.2935 17.318 24.5H20.263ZM20.439 23.5C20.625 22.8404 20.9488 22.2277 21.3891 21.7025C21.8293 21.1772 22.376 20.7514 22.993 20.453C22.9764 19.7999 22.9263 19.148 22.843 18.5H17.157C17.051 19.3291 16.9985 20.1642 17 21C17 21.875 17.056 22.714 17.158 23.5H20.438H20.439ZM12.804 24.5C13.3035 25.5243 14.0156 26.4304 14.8927 27.1578C15.7699 27.8853 16.792 28.4175 17.891 28.719C17.5549 28.2482 17.2769 27.7385 17.063 27.201C16.743 26.421 16.483 25.507 16.301 24.5H12.804ZM16.15 23.5H12.398C12.1334 22.6931 11.999 21.8492 12 21C12 20.127 12.14 19.287 12.398 18.5H16.15C16.052 19.295 16 20.134 16 21C16 21.866 16.052 22.705 16.15 23.5ZM25 21C27.071 21 28.75 22.727 28.75 24.857C28.75 26.454 27.567 28.127 25.25 29.914C25.1785 29.9696 25.0906 29.9998 25 29.9998C24.9094 29.9998 24.8215 29.9696 24.75 29.914C22.433 28.127 21.25 26.454 21.25 24.857C21.25 22.727 22.929 21 25 21ZM25 23.571C24.31 23.571 23.75 24.147 23.75 24.857C23.75 25.567 24.31 26.143 25 26.143C25.69 26.143 26.25 25.567 26.25 24.857C26.25 24.147 25.69 23.571 25 23.571Z" fill="white"/>
<defs>
<linearGradient id="paint0_linear_25_835" x1="20.5" y1="0" x2="20.5" y2="41" gradientUnits="userSpaceOnUse">
<stop offset="0.484375" stop-color="#1B2E54"/>
<stop offset="1" stop-color="#1B2E54" stop-opacity="0.57"/>
</linearGradient>
</defs>
</svg>
