<svg width="41" height="41" viewBox="0 0 41 41" fill="none" xmlns="http://www.w3.org/2000/svg">
<circle cx="20.5" cy="20.5" r="20.5" fill="url(#paint0_linear_25_852)"/>
<path d="M26 19.125H24.75C24.7495 18.6279 24.5518 18.1512 24.2003 17.7997C23.8488 17.4482 23.3721 17.2505 22.875 17.25V16C23.7035 16.001 24.4978 16.3306 25.0836 16.9164C25.6694 17.5022 25.999 18.2965 26 19.125Z" fill="white"/>
<path d="M28.5 19.125H27.25C27.2487 17.9651 26.7873 16.8531 25.9671 16.0329C25.1469 15.2127 24.0349 14.7513 22.875 14.75V13.5C24.3663 13.5017 25.7961 14.0948 26.8506 15.1494C27.9052 16.2039 28.4983 17.6337 28.5 19.125Z" fill="white"/>
<path d="M23.7083 24.4262L25.1083 23.0262C25.2957 22.8388 25.5339 22.7105 25.7936 22.6571C26.0532 22.6038 26.3228 22.6278 26.5689 22.7262L28.2739 23.4087C28.5252 23.5093 28.7406 23.6828 28.8923 23.907C29.0441 24.1311 29.1251 24.3956 29.1251 24.6662V27.7669C29.1256 27.9512 29.0884 28.1336 29.0159 28.303C28.9434 28.4724 28.837 28.6253 28.7034 28.7522C28.5698 28.8791 28.4116 28.9774 28.2387 29.0411C28.0658 29.1047 27.8817 29.1324 27.6976 29.1225C15.7464 28.3787 13.3326 18.2562 12.8845 14.38C12.8628 14.1905 12.8815 13.9985 12.9393 13.8168C12.9971 13.635 13.0927 13.4675 13.2199 13.3254C13.347 13.1832 13.5029 13.0696 13.6771 12.9919C13.8513 12.9143 14.04 12.8745 14.2308 12.875H17.2764C17.5471 12.875 17.8115 12.9561 18.0357 13.1078C18.2598 13.2595 18.4333 13.4749 18.5339 13.7262L19.2158 15.4312C19.3142 15.6773 19.3382 15.9469 19.2849 16.2066C19.2315 16.4662 19.1032 16.7045 18.9158 16.8919L17.5158 18.2919C17.5158 18.2919 18.292 23.7494 23.7083 24.4262Z" fill="white"/>
<defs>
<linearGradient id="paint0_linear_25_852" x1="20.5" y1="0" x2="20.5" y2="41" gradientUnits="userSpaceOnUse">
<stop offset="0.484375" stop-color="#1B2E54"/>
<stop offset="1" stop-color="#1B2E54" stop-opacity="0.57"/>
</linearGradient>
</defs>
</svg>
