<svg width="646" height="465" viewBox="0 0 646 465" fill="none" xmlns="http://www.w3.org/2000/svg">
<g opacity="0.08" filter="url(#filter0_d_187_520)">
<g clip-path="url(#clip0_187_520)">
<path d="M288.481 285.194C-51.7907 386.23 -409.542 192.292 -510.579 -147.981" stroke="#86FAF3" stroke-width="5" stroke-linecap="round"/>
<path d="M-370.812 -132.655C-261.119 130.412 41.0631 254.747 304.131 145.054C567.198 35.3612 691.533 -266.821 581.84 -529.889" stroke="#86FAF3" stroke-width="5" stroke-linecap="round"/>
<path d="M442.088 -916.255C765.222 -730.356 876.473 -317.704 690.574 5.43046C504.676 328.565 92.0229 439.816 -231.111 253.917" stroke="#86FAF3" stroke-width="5" stroke-linecap="round"/>
<path d="M104.574 -925.169C432.63 -925.674 698.982 -660.141 699.487 -332.084C699.993 -4.0271 434.46 262.325 106.403 262.83" stroke="#86FAF3" stroke-width="5" stroke-linecap="round"/>
<path d="M503.424 -1022.87C121.407 -1242.64 -366.44 -1111.12 -586.214 -729.105C-805.987 -347.088 -674.464 140.759 -292.447 360.533" stroke="#86FAF3" stroke-width="5" stroke-linecap="round"/>
<path d="M104.381 -1050.17C501.473 -1050.78 823.876 -729.368 824.487 -332.276C825.099 64.8161 503.688 387.219 106.595 387.83" stroke="#86FAF3" stroke-width="5" stroke-linecap="round"/>
<path d="M-128.327 -726.152C-346.47 -597.019 -418.627 -315.497 -289.495 -97.3536C-160.362 120.789 121.16 192.946 339.303 63.8139" stroke="#86FAF3" stroke-width="5" stroke-linecap="round"/>
<path d="M667.488 -663.852C851.224 -353.468 748.555 47.0947 438.171 230.831C127.787 414.566 -272.776 311.898 -456.512 1.51395" stroke="#7B8085" stroke-opacity="0.5" stroke-width="5" stroke-linecap="round"/>
<path d="M424.284 -519.885C528.509 -343.818 470.27 -116.598 294.204 -12.3731C118.137 91.8516 -109.083 33.6126 -213.308 -142.454" stroke="#86A0FA" stroke-width="5" stroke-linecap="round"/>
<path d="M539.123 -975.076C894.743 -735.586 988.885 -253.154 749.395 102.466C509.905 458.086 27.473 552.228 -328.147 312.738" stroke="#86A0FA" stroke-width="5" stroke-linecap="round"/>
<path d="M356.479 -479.746C438.536 -341.128 392.684 -162.235 254.066 -80.1782C115.447 1.87882 -63.4457 -43.9733 -145.503 -182.592" stroke="#86A0FA" stroke-width="5" stroke-linecap="round"/>
<circle cx="105.488" cy="-331.169" r="841" transform="rotate(-90.0882 105.488 -331.169)" stroke="#86FAF3" stroke-width="5" stroke-linecap="round"/>
<path d="M104.381 -1050.17C-292.711 -1049.56 -614.122 -727.154 -613.511 -330.062C-612.9 67.0304 -290.497 388.442 106.595 387.83" stroke="#86A0FA" stroke-width="5" stroke-linecap="round"/>
<path d="M671.487 -332.041C671.969 -19.4479 418.952 234.349 106.36 234.83C-206.233 235.311 -460.03 -17.7049 -460.511 -330.298" stroke="#7B8085" stroke-opacity="0.5" stroke-width="5" stroke-linecap="round"/>
<path d="M964.487 -332.492C965.218 141.92 581.223 527.099 106.811 527.83C-367.601 528.56 -752.78 144.566 -753.511 -329.846" stroke="#86A0FA" stroke-width="5" stroke-linecap="round"/>
<path d="M104.307 -1098.17C-319.295 -1097.52 -662.163 -753.59 -661.511 -329.988C-660.859 93.6138 -316.933 436.482 106.669 435.83" stroke="#7B8085" stroke-opacity="0.5" stroke-width="5" stroke-linecap="round"/>
<path d="M104.307 -1098.17C-319.295 -1097.52 -662.163 -753.59 -661.511 -329.988C-660.859 93.6138 -316.933 436.482 106.669 435.83" stroke="#7B8085" stroke-opacity="0.5" stroke-width="5" stroke-linecap="round"/>
<path d="M-122.447 159.169C-393.002 33.621 -510.553 -287.484 -385.005 -558.039C-259.457 -828.594 61.6474 -946.145 332.202 -820.597" stroke="#86FAF3" stroke-width="5" stroke-linecap="round"/>
<path d="M105.355 -742.169C332.068 -742.519 516.138 -559.015 516.487 -332.302C516.836 -105.589 333.332 78.4805 106.619 78.8296" stroke="#86FAF3" stroke-width="5" stroke-linecap="round"/>
<path d="M638.08 -577.042C773.962 -282.675 645.484 66.1109 351.117 201.993" stroke="#7B8085" stroke-opacity="0.5" stroke-width="5" stroke-linecap="round"/>
<path d="M-432.223 218.34C-735.907 -78.8295 -741.187 -565.916 -444.018 -869.599" stroke="#7B8085" stroke-opacity="0.5" stroke-width="5" stroke-linecap="round"/>
<path d="M401.442 -467.789C476.858 -304.41 405.551 -110.829 242.173 -35.4119C78.7944 40.0047 -114.787 -31.3025 -190.204 -194.681" stroke="#7B8085" stroke-opacity="0.5" stroke-width="5" stroke-linecap="round"/>
<path d="M-76.623 69.4674C-297.832 -31.2243 -395.531 -292.177 -294.84 -513.386C-194.148 -734.596 66.8045 -832.295 288.014 -731.603" stroke="#86A0FA" stroke-width="5" stroke-linecap="round"/>
<path d="M588.621 -331.643C588.987 -64.8311 372.989 151.76 106.177 152.126C-160.635 152.492 -377.226 -63.5058 -377.592 -330.318" stroke="#86A0FA" stroke-width="5" stroke-linecap="round"/>
<path d="M-633.672 -701.926C-431.493 -1104.59 63.3056 -1264.88 471.49 -1059.93C879.675 -854.978 1046.67 -362.407 844.494 40.2618" stroke="#354389" stroke-width="5" stroke-linecap="round"/>
</g>
</g>
<defs>
<filter id="filter0_d_187_520" x="-481" y="0" width="1126.97" height="464.618" filterUnits="userSpaceOnUse" color-interpolation-filters="sRGB">
<feFlood flood-opacity="0" result="BackgroundImageFix"/>
<feColorMatrix in="SourceAlpha" type="matrix" values="0 0 0 0 0 0 0 0 0 0 0 0 0 0 0 0 0 0 127 0" result="hardAlpha"/>
<feOffset dx="-50" dy="50"/>
<feGaussianBlur stdDeviation="12.5"/>
<feColorMatrix type="matrix" values="0 0 0 0 0 0 0 0 0 0 0 0 0 0 0 0 0 0 0.15 0"/>
<feBlend mode="normal" in2="BackgroundImageFix" result="effect1_dropShadow_187_520"/>
<feBlend mode="normal" in="SourceGraphic" in2="effect1_dropShadow_187_520" result="shape"/>
</filter>
<clipPath id="clip0_187_520">
<rect x="-405.403" y="389.618" width="388" height="1051.37" rx="20" transform="rotate(-90.0882 -405.403 389.618)" fill="white"/>
</clipPath>
</defs>
</svg>
