<svg width="1440" height="402" viewBox="0 0 1440 402" fill="none" xmlns="http://www.w3.org/2000/svg">
<g opacity="0.03">
<path d="M-206.981 568L-206.006 548.472C-198.051 389.188 229.292 321.086 723.989 400.267L785.929 410.181C1250.06 484.47 1650.01 419.752 1653.59 269.782L1654.26 241.525C1656.99 127.132 1925.53 66.6965 2278.82 100.968V100.968" stroke="white" stroke-width="6"/>
<path d="M-231.321 557.442L-230.345 537.913C-222.391 378.629 204.952 310.528 699.649 389.708L761.59 399.623C1225.72 473.911 1625.67 409.193 1629.25 259.223L1629.92 230.966C1632.65 116.573 1901.19 56.1379 2254.48 90.4095V90.4095" stroke="white" stroke-width="6"/>
<path d="M-255.661 546.883L-254.685 527.354C-246.731 368.071 180.612 299.969 675.309 379.15L737.249 389.064C1201.38 463.352 1601.33 398.634 1604.91 248.664L1605.58 220.407C1608.31 106.014 1876.85 45.5793 2230.14 79.8509V79.8509" stroke="white" stroke-width="6"/>
<path d="M-280.001 536.325L-279.026 516.796C-271.071 357.513 156.272 289.411 650.969 368.592L712.909 378.506C1177.04 452.794 1576.99 388.076 1580.57 238.106L1581.24 209.849C1583.97 95.4563 1852.51 35.0212 2205.8 69.2928V69.2928" stroke="white" stroke-width="6"/>
<path d="M-304.341 525.767L-303.366 506.238C-295.411 346.955 131.931 278.853 626.628 358.034L688.569 367.948C1152.7 442.236 1552.65 377.518 1556.23 227.548L1556.9 199.291C1559.63 84.8981 1828.17 24.4631 2181.46 58.7347V58.7347" stroke="white" stroke-width="6"/>
<path d="M-328.681 515.208L-327.706 495.679C-319.751 336.395 107.592 268.294 602.289 347.475L664.229 357.389C1128.36 431.677 1528.31 366.959 1531.89 216.989L1532.56 188.732C1535.29 74.3391 1803.83 13.904 2157.12 48.1757V48.1757" stroke="white" stroke-width="6"/>
<path d="M-353.021 504.649L-352.046 485.121C-344.091 325.837 83.2515 257.735 577.949 336.916L639.889 346.83C1104.02 421.118 1503.97 356.401 1507.55 206.431L1508.22 178.174C1510.95 63.7805 1779.49 3.34541 2132.78 37.6171V37.6171" stroke="white" stroke-width="6"/>
<path d="M-377.361 494.091L-376.386 474.562C-368.431 315.278 58.9113 247.177 553.608 326.357L615.549 336.271C1079.68 410.56 1479.63 345.842 1483.21 195.872L1483.88 167.615C1486.61 53.2219 1755.15 -7.21318 2108.44 27.0585V27.0585" stroke="white" stroke-width="6"/>
<path d="M-401.701 483.533L-400.726 464.004C-392.771 304.72 34.5712 236.619 529.268 315.799L591.209 325.713C1055.34 400.002 1455.29 335.284 1458.87 185.314L1459.54 157.057C1462.27 42.6638 1730.81 -17.7713 2084.1 16.5004V16.5004" stroke="white" stroke-width="6"/>
<path d="M-426.041 472.974L-425.066 453.445C-417.111 294.162 10.2314 226.06 504.928 305.241L566.869 315.155C1031 389.443 1430.95 324.725 1434.53 174.755L1435.2 146.498C1437.93 32.1052 1706.47 -28.3299 2059.76 5.94177V5.94177" stroke="white" stroke-width="6"/>
<path d="M-450.381 462.415L-449.406 442.887C-441.452 283.603 -14.1088 215.501 480.588 294.682L542.529 304.596C1006.66 378.885 1406.61 314.167 1410.19 164.197L1410.86 135.94C1413.59 21.5466 1682.13 -38.8885 2035.42 -4.61683V-4.61683" stroke="white" stroke-width="6"/>
<path d="M-474.721 451.857L-473.746 432.328C-465.791 273.044 -38.4487 204.943 456.248 284.123L518.189 294.038C982.32 368.326 1382.27 303.608 1385.85 153.638L1386.52 125.381C1389.25 10.988 1657.79 -49.4471 2011.08 -15.1754V-15.1754" stroke="white" stroke-width="6"/>
<path d="M-499.061 441.299L-498.086 421.77C-490.132 262.486 -62.7889 194.385 431.908 273.565L493.849 283.479C957.98 357.768 1357.93 293.05 1361.51 143.08L1362.18 114.823C1364.91 0.429885 1633.45 -60.0052 1986.74 -25.7335V-25.7335" stroke="white" stroke-width="6"/>
<path d="M-523.401 430.74L-522.426 411.211C-514.472 251.927 -87.1289 183.826 407.568 263.006L469.509 272.92C933.64 347.209 1333.59 282.491 1337.17 132.521L1337.84 104.264C1340.57 -10.1292 1609.11 -70.5643 1962.4 -36.2926V-36.2926" stroke="white" stroke-width="6"/>
<path d="M-547.742 420.181L-546.766 400.653C-538.812 241.369 -111.469 173.267 383.228 252.448L445.169 262.362C909.3 336.651 1309.25 271.933 1312.83 121.963L1313.5 93.7058C1316.23 -20.6873 1584.77 -81.1224 1938.06 -46.8507V-46.8507" stroke="white" stroke-width="6"/>
<path d="M-572.081 409.872L-571.106 390.344C-563.151 231.06 -135.809 162.958 358.888 242.139L420.829 252.053C884.96 326.342 1284.91 261.624 1288.49 111.654L1289.16 83.3967C1291.89 -30.9964 1560.43 -91.4314 1913.72 -57.1598V-57.1598" stroke="white" stroke-width="6"/>
<path d="M-596.421 399.564L-595.446 380.035C-587.491 220.751 -160.149 152.65 334.548 231.83L396.489 241.745C860.62 316.033 1260.57 251.315 1264.15 101.345L1264.82 73.0881C1267.55 -41.305 1536.09 -101.74 1889.38 -67.4684V-67.4684" stroke="white" stroke-width="6"/>
<path d="M-620.761 389.255L-619.786 369.727C-611.831 210.443 -184.489 142.341 310.208 221.522L372.149 231.436C836.28 305.724 1236.23 241.007 1239.81 91.0365L1240.48 62.7795C1243.21 -51.6136 1511.75 -112.049 1865.04 -77.777V-77.777" stroke="white" stroke-width="6"/>
<path d="M-645.101 378.947L-644.126 359.418C-636.171 200.135 -208.828 132.033 285.869 211.214L347.809 221.128C811.94 295.416 1211.89 230.698 1215.47 80.7284L1216.14 52.4714C1218.87 -61.9217 1487.41 -122.357 1840.7 -88.0851V-88.0851" stroke="white" stroke-width="6"/>
<path d="M-669.441 368.638L-668.466 349.11C-660.511 189.826 -233.168 121.724 261.529 200.905L323.469 210.819C787.6 285.108 1187.55 220.39 1191.13 70.4198L1191.8 42.1628C1194.53 -72.2303 1463.07 -132.665 1816.36 -98.3937V-98.3937" stroke="white" stroke-width="6"/>
<path d="M-693.781 358.329L-692.806 338.801C-684.851 179.517 -257.508 111.415 237.189 190.596L299.129 200.51C763.26 274.799 1163.21 210.081 1166.79 60.1107L1167.46 31.8537C1170.19 -82.5394 1438.73 -142.974 1792.02 -108.703V-108.703" stroke="white" stroke-width="6"/>
<path d="M-718.121 348.021L-717.146 328.493C-709.191 169.209 -281.848 101.107 212.849 180.288L274.789 190.202C738.92 264.491 1138.87 199.773 1142.45 49.8026L1143.12 21.5456C1145.85 -92.8475 1414.39 -153.283 1767.68 -119.011V-119.011" stroke="white" stroke-width="6"/>
<path d="M-742.461 337.713L-741.486 318.185C-733.531 158.901 -306.188 90.7992 188.509 169.98L250.449 179.894C714.581 254.182 1114.53 189.465 1118.11 39.4945L1118.78 11.2375C1121.51 -103.156 1390.05 -163.591 1743.34 -129.319V-129.319" stroke="white" stroke-width="6"/>
<path d="M-766.801 327.405L-765.825 307.876C-757.871 148.592 -330.528 80.4906 164.169 159.671L226.109 169.585C690.241 243.874 1090.19 179.156 1093.77 29.1859L1094.44 0.928919C1097.17 -113.464 1365.71 -173.899 1719 -139.628V-139.628" stroke="white" stroke-width="6"/>
<path d="M-791.141 317.096L-790.165 297.567C-782.211 138.284 -354.868 70.182 139.829 149.363L201.77 159.277C665.901 233.565 1065.85 168.847 1069.43 18.8773L1070.1 -9.37967C1072.83 -123.773 1341.37 -184.208 1694.66 -149.936V-149.936" stroke="white" stroke-width="6"/>
<path d="M-815.481 306.787L-814.505 287.258C-806.551 127.975 -379.208 59.8729 115.489 139.054L177.429 148.968C641.561 223.256 1041.51 158.538 1045.09 8.56823L1045.76 -19.6888C1048.49 -134.082 1317.03 -194.517 1670.32 -160.245V-160.245" stroke="white" stroke-width="6"/>
<path d="M-839.821 296.479L-838.846 276.95C-830.891 117.666 -403.548 49.5648 91.1489 128.746L153.089 138.66C617.221 212.948 1017.17 148.23 1020.75 -1.73988L1021.42 -29.9969C1024.15 -144.39 1292.69 -204.825 1645.98 -170.553V-170.553" stroke="white" stroke-width="6"/>
<path d="M-864.16 286.171L-863.185 266.642C-855.23 107.358 -427.888 39.2567 66.8093 118.437L128.75 128.352C592.881 202.64 992.834 137.922 996.411 -12.048L997.085 -40.305C999.813 -154.698 1268.36 -215.133 1621.64 -180.861V-180.861" stroke="white" stroke-width="6"/>
<path d="M-888.5 275.862L-887.525 256.333C-879.571 97.0492 -452.228 28.9476 42.4692 108.128L104.41 118.042C568.541 192.331 968.494 127.613 972.071 -22.3571L972.745 -50.614C975.473 -165.007 1244.01 -225.442 1597.3 -191.171V-191.171" stroke="white" stroke-width="6"/>
</g>
</svg>
