<svg width="1440" height="2531" viewBox="0 0 1440 2531" fill="none" xmlns="http://www.w3.org/2000/svg">
<g opacity="0.04">
<path d="M-146.291 415.219L-145.714 456.337C-141.538 754.038 180.443 938.14 439.122 790.734L476.297 769.55C719.438 630.998 1021.83 805.37 1023.7 1085.21L1024.36 1183.08C1025.71 1385.55 1225.46 1526.88 1416.85 1460.78V1460.78" stroke="#1B2E54" stroke-width="4"/>
<path d="M-147.597 438.857L-147.02 479.975C-142.844 777.676 179.137 961.778 437.816 814.372L474.991 793.188C718.132 654.636 1020.52 829.008 1022.39 1108.85L1023.05 1206.71C1024.41 1409.19 1224.15 1550.52 1415.54 1484.42V1484.42" stroke="#1B2E54" stroke-width="4"/>
<path d="M-148.902 462.495L-148.325 503.613C-144.149 801.314 177.832 985.416 436.51 838.01L473.686 816.826C716.827 678.274 1019.21 852.646 1021.09 1132.49L1021.74 1230.35C1023.1 1432.83 1222.85 1574.16 1414.24 1508.06V1508.06" stroke="#1B2E54" stroke-width="4"/>
<path d="M-150.208 486.133L-149.631 527.251C-145.455 824.951 176.526 1009.05 435.205 861.647L472.38 840.463C715.521 701.912 1017.91 876.284 1019.78 1156.12L1020.44 1253.99C1021.8 1456.46 1221.54 1597.8 1412.93 1531.7V1531.7" stroke="#1B2E54" stroke-width="4"/>
<path d="M-151.513 509.77L-150.937 550.888C-146.761 848.589 175.22 1032.69 433.899 885.285L471.074 864.101C714.215 725.549 1016.6 899.921 1018.48 1179.76L1019.13 1277.63C1020.49 1480.1 1220.24 1621.43 1411.62 1555.34V1555.34" stroke="#1B2E54" stroke-width="4"/>
<path d="M-152.819 533.408L-152.242 574.526C-148.066 872.227 173.915 1056.33 432.593 908.923L469.769 887.739C712.91 749.187 1015.3 923.559 1017.17 1203.4L1017.83 1301.26C1019.18 1503.74 1218.93 1645.07 1410.32 1578.97V1578.97" stroke="#1B2E54" stroke-width="4"/>
<path d="M-154.125 557.046L-153.548 598.164C-149.372 895.865 172.609 1079.97 431.288 932.561L468.463 911.377C711.604 772.825 1013.99 947.197 1015.87 1227.04L1016.52 1324.9C1017.88 1527.38 1217.63 1668.71 1409.01 1602.61V1602.61" stroke="#1B2E54" stroke-width="4"/>
<path d="M-155.431 580.684L-154.854 621.801C-150.678 919.502 171.303 1103.6 429.982 956.198L467.157 935.014C710.298 796.463 1012.69 970.835 1014.56 1250.68L1015.22 1348.54C1016.57 1551.02 1216.32 1692.35 1407.71 1626.25V1626.25" stroke="#1B2E54" stroke-width="4"/>
<path d="M-156.736 604.321L-156.159 645.439C-151.983 943.14 169.998 1127.24 428.676 979.836L465.852 958.652C708.993 820.1 1011.38 994.472 1013.25 1274.31L1013.91 1372.18C1015.27 1574.65 1215.01 1715.99 1406.4 1649.89V1649.89" stroke="#1B2E54" stroke-width="4"/>
<path d="M-158.042 627.959L-157.465 669.077C-153.289 966.778 168.692 1150.88 427.371 1003.47L464.546 982.29C707.687 843.738 1010.07 1018.11 1011.95 1297.95L1012.6 1395.82C1013.96 1598.29 1213.71 1739.62 1405.1 1673.52V1673.52" stroke="#1B2E54" stroke-width="4"/>
<path d="M-159.347 651.597L-158.771 692.715C-154.595 990.415 167.386 1174.52 426.065 1027.11L463.24 1005.93C706.381 867.376 1008.77 1041.75 1010.64 1321.59L1011.3 1419.45C1012.66 1621.93 1212.4 1763.26 1403.79 1697.16V1697.16" stroke="#1B2E54" stroke-width="4"/>
<path d="M-160.653 675.234L-160.076 716.352C-155.9 1014.05 166.081 1198.16 424.759 1050.75L461.935 1029.57C705.076 891.013 1007.46 1065.39 1009.34 1345.23L1009.99 1443.09C1011.35 1645.57 1211.1 1786.9 1402.48 1720.8V1720.8" stroke="#1B2E54" stroke-width="4"/>
<path d="M-161.959 698.872L-161.382 739.99C-157.206 1037.69 164.775 1221.79 423.454 1074.39L460.629 1053.2C703.77 914.651 1006.16 1089.02 1008.03 1368.86L1008.69 1466.73C1010.04 1669.2 1209.79 1810.54 1401.18 1744.44V1744.44" stroke="#1B2E54" stroke-width="4"/>
<path d="M-163.264 722.51L-162.688 763.628C-158.512 1061.33 163.469 1245.43 422.148 1098.02L459.323 1076.84C702.464 938.289 1004.85 1112.66 1006.73 1392.5L1007.38 1490.37C1008.74 1692.84 1208.49 1834.17 1399.87 1768.08V1768.08" stroke="#1B2E54" stroke-width="4"/>
<path d="M-164.57 746.148L-163.993 787.266C-159.817 1084.97 162.164 1269.07 420.842 1121.66L458.018 1100.48C701.159 961.927 1003.55 1136.3 1005.42 1416.14L1006.08 1514C1007.43 1716.48 1207.18 1857.81 1398.57 1791.71V1791.71" stroke="#1B2E54" stroke-width="4"/>
<path d="M-165.876 769.226L-165.299 810.344C-161.123 1108.04 160.858 1292.15 419.537 1144.74L456.712 1123.56C699.853 985.005 1002.24 1159.38 1004.12 1439.22L1004.77 1537.08C1006.13 1739.56 1205.88 1880.89 1397.26 1814.79V1814.79" stroke="#1B2E54" stroke-width="4"/>
<path d="M-167.181 792.304L-166.605 833.422C-162.429 1131.12 159.552 1315.23 418.231 1167.82L455.406 1146.64C698.547 1008.08 1000.93 1182.46 1002.81 1462.3L1003.47 1560.16C1004.82 1762.64 1204.57 1903.97 1395.96 1837.87V1837.87" stroke="#1B2E54" stroke-width="4"/>
<path d="M-168.487 815.383L-167.91 856.501C-163.734 1154.2 158.247 1338.3 416.925 1190.9L454.101 1169.71C697.242 1031.16 999.629 1205.53 1001.5 1485.37L1002.16 1583.24C1003.52 1785.71 1203.26 1927.05 1394.65 1860.95V1860.95" stroke="#1B2E54" stroke-width="4"/>
<path d="M-169.793 838.461L-169.216 879.579C-165.04 1177.28 156.941 1361.38 415.62 1213.98L452.795 1192.79C695.936 1054.24 998.323 1228.61 1000.2 1508.45L1000.85 1606.32C1002.21 1808.79 1201.96 1950.12 1393.35 1884.03V1884.03" stroke="#1B2E54" stroke-width="4"/>
<path d="M-171.098 861.539L-170.522 902.657C-166.346 1200.36 155.635 1384.46 414.314 1237.05L451.49 1215.87C694.631 1077.32 997.018 1251.69 998.893 1531.53L999.548 1629.4C1000.9 1831.87 1200.65 1973.2 1392.04 1907.1V1907.1" stroke="#1B2E54" stroke-width="4"/>
<path d="M-172.404 884.617L-171.827 925.735C-167.651 1223.44 154.33 1407.54 413.008 1260.13L450.184 1238.95C693.325 1100.4 995.712 1274.77 997.587 1554.61L998.243 1652.47C999.599 1854.95 1199.35 1996.28 1390.73 1930.18V1930.18" stroke="#1B2E54" stroke-width="4"/>
<path d="M-173.71 907.696L-173.133 948.814C-168.957 1246.51 153.024 1430.62 411.703 1283.21L448.878 1262.03C692.019 1123.47 994.406 1297.85 996.281 1577.69L996.937 1675.55C998.293 1878.03 1198.04 2019.36 1389.43 1953.26V1953.26" stroke="#1B2E54" stroke-width="4"/>
<path d="M-175.015 930.774L-174.439 971.892C-170.263 1269.59 151.718 1453.69 410.397 1306.29L447.573 1285.1C690.714 1146.55 993.101 1320.92 994.976 1600.77L995.631 1698.63C996.988 1901.11 1196.74 2042.44 1388.12 1976.34V1976.34" stroke="#1B2E54" stroke-width="4"/>
<path d="M-176.321 953.852L-175.744 994.97C-171.568 1292.67 150.413 1476.77 409.091 1329.37L446.267 1308.18C689.408 1169.63 991.795 1344 993.67 1623.84L994.326 1721.71C995.682 1924.18 1195.43 2065.52 1386.82 1999.42V1999.42" stroke="#1B2E54" stroke-width="4"/>
<path d="M-177.627 976.93L-177.05 1018.05C-172.874 1315.75 149.107 1499.85 407.786 1352.44L444.961 1331.26C688.102 1192.71 990.489 1367.08 992.364 1646.92L993.02 1744.79C994.376 1947.26 1194.12 2088.59 1385.51 2022.5V2022.5" stroke="#1B2E54" stroke-width="4"/>
<path d="M-178.932 1000.01L-178.356 1041.13C-174.18 1338.83 147.801 1522.93 406.48 1375.52L443.655 1354.34C686.796 1215.79 989.184 1390.16 991.059 1670L991.714 1767.87C993.071 1970.34 1192.82 2111.67 1384.21 2045.57V2045.57" stroke="#1B2E54" stroke-width="4"/>
<path d="M-180.238 1023.09L-179.661 1064.2C-175.485 1361.91 146.496 1546.01 405.174 1398.6L442.35 1377.42C685.491 1238.87 987.878 1413.24 989.753 1693.08L990.409 1790.94C991.765 1993.42 1191.51 2134.75 1382.9 2068.65V2068.65" stroke="#1B2E54" stroke-width="4"/>
<path d="M-181.544 1046.16L-180.967 1087.28C-176.791 1384.98 145.19 1569.09 403.869 1421.68L441.044 1400.5C684.185 1261.94 986.572 1436.32 988.447 1716.16L989.103 1814.02C990.459 2016.5 1190.21 2157.83 1381.59 2091.73V2091.73" stroke="#1B2E54" stroke-width="4"/>
<path d="M-182.849 1069.24L-182.273 1110.36C-178.097 1408.06 143.884 1592.16 402.563 1444.76L439.738 1423.57C682.879 1285.02 985.267 1459.39 987.142 1739.23L987.797 1837.1C989.154 2039.57 1188.9 2180.91 1380.29 2114.81V2114.81" stroke="#1B2E54" stroke-width="4"/>
</g>
</svg>
